<?xml version="1.0" encoding="UTF-8"?>
<svg version="1.1" xmlns="http://www.w3.org/2000/svg" width="1024" height="1024">
<path d="M0 0 C337.92 0 675.84 0 1024 0 C1024 337.92 1024 675.84 1024 1024 C686.08 1024 348.16 1024 0 1024 C0 686.08 0 348.16 0 0 Z " fill="#1F1F1D" transform="translate(0,0)"/>
<path d="M0 0 C3.16979191 0.01070547 6.33901436 0.00004652 9.50878906 -0.01269531 C22.39240561 -0.02189521 35.02331162 0.64844194 47.80566406 2.26074219 C49.51181885 2.47174561 49.51181885 2.47174561 51.25244141 2.68701172 C87.01868443 7.44611181 121.50730679 18.2559716 153.80566406 34.26074219 C154.7826123 34.7430127 155.75956055 35.2252832 156.76611328 35.72216797 C182.53620215 48.55007721 206.19289199 64.22591519 227.80566406 83.26074219 C228.58039062 83.92460937 229.35511719 84.58847656 230.15332031 85.27246094 C243.0043312 96.4922972 255.44371667 108.69369332 265.80566406 122.26074219 C266.88817171 123.61791083 267.97301923 124.97321481 269.05957031 126.32714844 C302.02933886 167.65538639 325.0203918 217.53506643 334.33642578 269.64501953 C334.66256006 271.46302297 335.00384854 273.27834664 335.35693359 275.09130859 C347.09239812 336.7049774 336.41664987 402.20009485 311.80566406 459.26074219 C311.47099121 460.040625 311.13631836 460.82050781 310.79150391 461.62402344 C303.23922054 478.98919079 293.70995472 495.78870054 282.80566406 511.26074219 C281.79289819 512.73398123 280.78128522 514.20801316 279.77050781 515.68261719 C271.74217626 527.33694543 263.29353406 538.62266042 254.66162109 549.83447266 C252.4405769 552.73801609 250.2573724 555.66814133 248.0793457 558.60400391 C242.56946146 566.02968917 236.82900341 573.2328131 230.96582031 580.38183594 C227.98102754 584.0276963 225.07352304 587.72929684 222.18066406 591.44824219 C217.73445432 597.15121715 213.11424086 602.68396955 208.41894531 608.18261719 C206.02684137 610.98781539 203.69110555 613.83537376 201.36816406 616.69824219 C197.4122563 621.55997498 193.34486307 626.3166277 189.25170898 631.0625 C186.16851446 634.64539315 183.15047104 638.27008902 180.18066406 641.94824219 C176.38006844 646.63381405 172.35928426 651.07285852 168.27441406 655.51074219 C165.86188303 658.19811853 163.57310196 660.95039663 161.30566406 663.76074219 C157.46498213 668.52102402 153.40469344 673.0241619 149.26269531 677.52246094 C146.91190274 680.14234265 144.69315947 682.82626438 142.49316406 685.57324219 C138.41753363 690.62990933 134.05203447 695.34422522 129.60327148 700.06860352 C126.36032765 703.53118331 123.27144229 707.0535194 120.30566406 710.76074219 C115.74921622 716.45209862 110.79774185 721.72486501 105.81347656 727.03808594 C102.96340836 730.0786855 100.20077596 733.18422643 97.47753906 736.33886719 C95.44808333 738.67179293 93.37801706 740.96585464 91.30566406 743.26074219 C88.61582975 746.24136939 85.94256042 749.23319451 83.30566406 752.26074219 C78.43423203 757.85054208 73.44671256 763.33609116 68.47753906 768.83886719 C64.4886183 773.2619562 60.52998499 777.70689223 56.61816406 782.19824219 C53.77418611 785.43449296 50.87953706 788.62482887 47.99316406 791.82324219 C46.08012257 793.95491699 44.18678794 796.10093329 42.30566406 798.26074219 C38.91071468 802.15864704 35.44900522 805.99421276 31.98535156 809.83105469 C30.11421312 811.91680399 28.26641575 814.01891847 26.43066406 816.13574219 C23.34439819 819.67118291 20.21094582 823.16193313 17.05566406 826.63574219 C16.58338379 827.16022949 16.11110352 827.6847168 15.62451172 828.22509766 C12.50201357 831.64678404 10.30418735 833.9962969 5.61816406 834.82324219 C-1.91484393 833.71181478 -6.55371106 827.06339615 -11.28027344 821.49511719 C-13.53199548 818.86657636 -15.85878206 816.31503374 -18.19433594 813.76074219 C-21.65009007 809.97140093 -25.05956484 806.14990521 -28.42480469 802.28027344 C-31.97010548 798.2340913 -35.58892593 794.25331032 -39.19433594 790.26074219 C-43.96467531 784.97815161 -48.71328 779.68140084 -53.38964844 774.31542969 C-57.65426328 769.46004569 -61.99932601 764.67485474 -66.34667969 759.89355469 C-70.63104758 755.16757925 -74.81587834 750.37240313 -78.94433594 745.51074219 C-83.71360815 739.90100866 -88.6477162 734.47220025 -93.68066406 729.09863281 C-97.03312856 725.51860709 -100.31712781 721.89572586 -103.52246094 718.18261719 C-105.55191667 715.84969144 -107.62198294 713.55562973 -109.69433594 711.26074219 C-114.5266087 705.90057408 -119.2925245 700.49064645 -123.97949219 695.00292969 C-125.00941073 693.79717543 -126.03935947 692.59144696 -127.06933594 691.38574219 C-127.58898926 690.77722412 -128.10864258 690.16870605 -128.64404297 689.54174805 C-131.67326127 686.00450361 -134.74582177 682.51681642 -137.88183594 679.07324219 C-140.87351754 675.78132014 -143.71958016 672.41482912 -146.50683594 668.94824219 C-149.91856117 664.7267532 -153.4875341 660.72002872 -157.19433594 656.76074219 C-161.6184478 652.03087366 -165.80162382 647.18059121 -169.85839844 642.12792969 C-172.533074 638.8449667 -175.29620081 635.6479117 -178.06933594 632.44824219 C-182.57975449 627.22956428 -186.89273058 621.8909986 -191.11962891 616.44116211 C-194.2169784 612.4624304 -197.41449299 608.59003587 -200.69433594 604.76074219 C-205.92235974 598.64823291 -210.89718843 592.35920494 -215.83251953 586.00927734 C-217.60208234 583.73720691 -219.38386334 581.47489823 -221.16625977 579.21289062 C-223.01098665 576.87061492 -224.85092151 574.52459803 -226.69042969 572.17822266 C-227.73130618 570.85110513 -228.77302922 569.5246513 -229.81542969 568.19873047 C-250.8467661 541.4299192 -271.46723318 513.97085689 -288.19433594 484.26074219 C-288.60151855 483.53967285 -289.00870117 482.81860352 -289.42822266 482.07568359 C-318.20717482 430.60234155 -329.09013711 374.61687435 -328.19433594 316.26074219 C-328.18563477 315.3198877 -328.17693359 314.3790332 -328.16796875 313.40966797 C-327.39709643 248.21779368 -300.3856496 179.95248914 -260.19433594 129.26074219 C-259.39125 128.24496094 -258.58816406 127.22917969 -257.76074219 126.18261719 C-252.786211 120.0097154 -247.53306054 114.11850946 -242.19433594 108.26074219 C-241.45183594 107.42542969 -240.70933594 106.59011719 -239.94433594 105.72949219 C-189.14609708 48.58147347 -114.59034814 12.02340835 -39.19433594 2.26074219 C-37.96440918 2.09010254 -36.73448242 1.91946289 -35.46728516 1.74365234 C-23.63948942 0.19697761 -11.91835618 -0.04771747 0 0 Z " fill="#1F1F1D" transform="translate(505.1943359375,92.7392578125)"/>
<path d="M0 0 C3.16979191 0.01070547 6.33901436 0.00004652 9.50878906 -0.01269531 C22.39240561 -0.02189521 35.02331162 0.64844194 47.80566406 2.26074219 C49.51181885 2.47174561 49.51181885 2.47174561 51.25244141 2.68701172 C87.01868443 7.44611181 121.50730679 18.2559716 153.80566406 34.26074219 C154.7826123 34.7430127 155.75956055 35.2252832 156.76611328 35.72216797 C182.53620215 48.55007721 206.19289199 64.22591519 227.80566406 83.26074219 C228.58039062 83.92460937 229.35511719 84.58847656 230.15332031 85.27246094 C243.0043312 96.4922972 255.44371667 108.69369332 265.80566406 122.26074219 C266.88817171 123.61791083 267.97301923 124.97321481 269.05957031 126.32714844 C302.02933886 167.65538639 325.0203918 217.53506643 334.33642578 269.64501953 C334.66256006 271.46302297 335.00384854 273.27834664 335.35693359 275.09130859 C347.09239812 336.7049774 336.41664987 402.20009485 311.80566406 459.26074219 C311.47099121 460.040625 311.13631836 460.82050781 310.79150391 461.62402344 C303.23922054 478.98919079 293.70995472 495.78870054 282.80566406 511.26074219 C281.79289819 512.73398123 280.78128522 514.20801316 279.77050781 515.68261719 C271.74217626 527.33694543 263.29353406 538.62266042 254.66162109 549.83447266 C252.4405769 552.73801609 250.2573724 555.66814133 248.0793457 558.60400391 C242.56946146 566.02968917 236.82900341 573.2328131 230.96582031 580.38183594 C227.98102754 584.0276963 225.07352304 587.72929684 222.18066406 591.44824219 C217.73445432 597.15121715 213.11424086 602.68396955 208.41894531 608.18261719 C206.02684137 610.98781539 203.69110555 613.83537376 201.36816406 616.69824219 C197.4122563 621.55997498 193.34486307 626.3166277 189.25170898 631.0625 C186.16851446 634.64539315 183.15047104 638.27008902 180.18066406 641.94824219 C176.38006844 646.63381405 172.35928426 651.07285852 168.27441406 655.51074219 C165.86188303 658.19811853 163.57310196 660.95039663 161.30566406 663.76074219 C157.46498213 668.52102402 153.40469344 673.0241619 149.26269531 677.52246094 C146.91190274 680.14234265 144.69315947 682.82626438 142.49316406 685.57324219 C138.41753363 690.62990933 134.05203447 695.34422522 129.60327148 700.06860352 C126.36032765 703.53118331 123.27144229 707.0535194 120.30566406 710.76074219 C115.74921622 716.45209862 110.79774185 721.72486501 105.81347656 727.03808594 C102.96340836 730.0786855 100.20077596 733.18422643 97.47753906 736.33886719 C95.44808333 738.67179293 93.37801706 740.96585464 91.30566406 743.26074219 C88.61582975 746.24136939 85.94256042 749.23319451 83.30566406 752.26074219 C78.43423203 757.85054208 73.44671256 763.33609116 68.47753906 768.83886719 C64.4886183 773.2619562 60.52998499 777.70689223 56.61816406 782.19824219 C53.77418611 785.43449296 50.87953706 788.62482887 47.99316406 791.82324219 C46.08012257 793.95491699 44.18678794 796.10093329 42.30566406 798.26074219 C38.91071468 802.15864704 35.44900522 805.99421276 31.98535156 809.83105469 C30.11421312 811.91680399 28.26641575 814.01891847 26.43066406 816.13574219 C23.34439819 819.67118291 20.21094582 823.16193313 17.05566406 826.63574219 C16.58338379 827.16022949 16.11110352 827.6847168 15.62451172 828.22509766 C12.50201357 831.64678404 10.30418735 833.9962969 5.61816406 834.82324219 C-1.91484393 833.71181478 -6.55371106 827.06339615 -11.28027344 821.49511719 C-13.53199548 818.86657636 -15.85878206 816.31503374 -18.19433594 813.76074219 C-21.65009007 809.97140093 -25.05956484 806.14990521 -28.42480469 802.28027344 C-31.97010548 798.2340913 -35.58892593 794.25331032 -39.19433594 790.26074219 C-43.96467531 784.97815161 -48.71328 779.68140084 -53.38964844 774.31542969 C-57.65426328 769.46004569 -61.99932601 764.67485474 -66.34667969 759.89355469 C-70.63104758 755.16757925 -74.81587834 750.37240313 -78.94433594 745.51074219 C-83.71360815 739.90100866 -88.6477162 734.47220025 -93.68066406 729.09863281 C-97.03312856 725.51860709 -100.31712781 721.89572586 -103.52246094 718.18261719 C-105.55191667 715.84969144 -107.62198294 713.55562973 -109.69433594 711.26074219 C-114.5266087 705.90057408 -119.2925245 700.49064645 -123.97949219 695.00292969 C-125.00941073 693.79717543 -126.03935947 692.59144696 -127.06933594 691.38574219 C-127.58898926 690.77722412 -128.10864258 690.16870605 -128.64404297 689.54174805 C-131.67326127 686.00450361 -134.74582177 682.51681642 -137.88183594 679.07324219 C-140.87351754 675.78132014 -143.71958016 672.41482912 -146.50683594 668.94824219 C-149.91856117 664.7267532 -153.4875341 660.72002872 -157.19433594 656.76074219 C-161.6184478 652.03087366 -165.80162382 647.18059121 -169.85839844 642.12792969 C-172.533074 638.8449667 -175.29620081 635.6479117 -178.06933594 632.44824219 C-182.57975449 627.22956428 -186.89273058 621.8909986 -191.11962891 616.44116211 C-194.2169784 612.4624304 -197.41449299 608.59003587 -200.69433594 604.76074219 C-205.92235974 598.64823291 -210.89718843 592.35920494 -215.83251953 586.00927734 C-217.60208234 583.73720691 -219.38386334 581.47489823 -221.16625977 579.21289062 C-223.01098665 576.87061492 -224.85092151 574.52459803 -226.69042969 572.17822266 C-227.73130618 570.85110513 -228.77302922 569.5246513 -229.81542969 568.19873047 C-250.8467661 541.4299192 -271.46723318 513.97085689 -288.19433594 484.26074219 C-288.60151855 483.53967285 -289.00870117 482.81860352 -289.42822266 482.07568359 C-318.20717482 430.60234155 -329.09013711 374.61687435 -328.19433594 316.26074219 C-328.18563477 315.3198877 -328.17693359 314.3790332 -328.16796875 313.40966797 C-327.39709643 248.21779368 -300.3856496 179.95248914 -260.19433594 129.26074219 C-259.39125 128.24496094 -258.58816406 127.22917969 -257.76074219 126.18261719 C-252.786211 120.0097154 -247.53306054 114.11850946 -242.19433594 108.26074219 C-241.45183594 107.42542969 -240.70933594 106.59011719 -239.94433594 105.72949219 C-189.14609708 48.58147347 -114.59034814 12.02340835 -39.19433594 2.26074219 C-37.96440918 2.09010254 -36.73448242 1.91946289 -35.46728516 1.74365234 C-23.63948942 0.19697761 -11.91835618 -0.04771747 0 0 Z M-201.19433594 111.26074219 C-202.92322293 112.80272248 -204.65238788 114.3443912 -206.38183594 115.88574219 C-213.12955612 121.96923366 -219.30603781 128.34527643 -225.19433594 135.26074219 C-225.92265625 136.09992188 -226.65097656 136.93910156 -227.40136719 137.80371094 C-239.97670019 152.53249353 -250.67281717 168.41151405 -260.19433594 185.26074219 C-260.66613281 186.09444336 -261.13792969 186.92814453 -261.62402344 187.78710938 C-273.37528646 208.79817288 -281.85968196 231.06112777 -288.19433594 254.26074219 C-288.57235352 255.63782349 -288.57235352 255.63782349 -288.95800781 257.04272461 C-291.11708155 265.25728232 -292.53648491 273.56092848 -293.81933594 281.94824219 C-293.98325333 283.01262512 -293.98325333 283.01262512 -294.15048218 284.09851074 C-295.73956277 294.49003639 -297.05605916 304.72975875 -297.19433594 315.26074219 C-297.21866699 316.22206055 -297.24299805 317.18337891 -297.26806641 318.17382812 C-297.88684293 343.63974876 -296.39903996 369.47049726 -290.19433594 394.26074219 C-289.83879639 395.68531738 -289.83879639 395.68531738 -289.47607422 397.13867188 C-279.79135785 435.13583278 -263.66568476 469.04628707 -240.9140625 500.85009766 C-239.30535328 503.10512248 -237.71124045 505.36946281 -236.12402344 507.63964844 C-225.65938845 522.5987878 -214.88724539 537.3191813 -203.51220703 551.60009766 C-202.1756536 553.28428373 -200.84946072 554.9761223 -199.52636719 556.67089844 C-192.5312063 565.62905815 -185.38680122 574.46049373 -178.19433594 583.26074219 C-176.95296875 584.78054688 -176.95296875 584.78054688 -175.68652344 586.33105469 C-174.22287324 588.12109378 -172.75808069 589.91019959 -171.29199219 591.69824219 C-169.87916 593.4241601 -168.47037885 595.1534012 -167.06542969 596.88574219 C-161.89021921 603.255232 -156.58626185 609.50192838 -151.23339844 615.72167969 C-148.3683646 619.05239522 -145.52780345 622.40316508 -142.69433594 625.76074219 C-136.89659323 632.62473643 -131.05568942 639.45101443 -125.19433594 646.26074219 C-124.65486328 646.88803223 -124.11539063 647.51532227 -123.55957031 648.16162109 C-118.09330556 654.51270133 -112.61444195 660.84033271 -106.94433594 667.01074219 C-103.81432104 670.42165586 -100.83609805 673.89603954 -97.94433594 677.51074219 C-93.66074602 682.82725449 -89.03569767 687.75710279 -84.34765625 692.71289062 C-80.98006705 696.29129491 -77.76080904 699.91620874 -74.69433594 703.76074219 C-69.91832917 709.7441664 -64.67154179 715.24849939 -59.42480469 720.81542969 C-56.48401015 723.93850141 -53.63034417 727.12346311 -50.83105469 730.37402344 C-48.81559822 732.69733006 -46.75585131 734.97822684 -44.69433594 737.26074219 C-41.43042746 740.87750564 -38.20642645 744.52463827 -35.00683594 748.19824219 C-32.92222429 750.57038647 -30.8100495 752.91630284 -28.69433594 755.26074219 C-25.43042746 758.87750564 -22.20642645 762.52463827 -19.00683594 766.19824219 C-16.92222429 768.57038647 -14.8100495 770.91630284 -12.69433594 773.26074219 C-6.75902949 779.84097158 -0.94961023 786.52286009 4.80566406 793.26074219 C8.51297153 790.48351361 11.32739077 787.58951334 14.18066406 783.94824219 C17.31999095 780.02928114 20.52991231 776.41296063 24.13378906 772.92480469 C26.5305724 770.53922127 28.7148738 767.98818292 30.92285156 765.42871094 C33.02141726 763.01231268 35.16006106 760.63545195 37.30566406 758.26074219 C39.99549837 755.28011498 42.6687677 752.28828986 45.30566406 749.26074219 C48.69819499 745.36561408 52.15760607 741.53291456 55.61816406 737.69824219 C58.10628093 734.92576911 60.5563387 732.1222937 63.00097656 729.31152344 C65.03524547 726.99985422 67.10788716 724.72542789 69.18066406 722.44824219 C72.23425273 719.07133237 75.14995611 715.62857087 77.99316406 712.07324219 C82.89971137 706.00257557 88.23767023 700.37005304 93.58691406 694.69042969 C97.09498745 690.96410288 100.48626044 687.15588819 103.80566406 683.26074219 C105.74183525 680.98877205 107.67937078 678.71797524 109.61816406 676.44824219 C110.13564209 675.84189941 110.65312012 675.23555664 111.1862793 674.61083984 C114.39094331 670.86964837 117.65791233 667.1994193 120.99316406 663.57324219 C124.20211451 660.0781433 127.26632243 656.51790378 130.24316406 652.82324219 C133.46509723 648.82849965 136.81224018 645.0152211 140.30566406 641.26074219 C144.61562844 636.62825839 148.65627574 631.83951986 152.62597656 626.90917969 C154.78323805 624.287991 157.01877407 621.76919938 159.30566406 619.26074219 C163.53250628 614.61194326 167.51048698 609.79788377 171.46142578 604.9140625 C173.54991664 602.34536289 175.65918133 599.79389779 177.76660156 597.24072266 C188.48419681 584.25616881 199.12293194 571.21843011 209.48486328 557.94775391 C210.77549104 556.29928111 212.07250153 554.65607862 213.37207031 553.01464844 C225.34355226 537.88390049 237.07064944 522.63676372 247.84472656 506.62402344 C250.10050464 503.27539753 252.42412641 499.98831419 254.80395508 496.72705078 C260.30716347 489.18120428 265.22468282 481.39867659 269.80566406 473.26074219 C270.22960449 472.51002441 270.65354492 471.75930664 271.09033203 470.98583984 C287.51305965 441.57853694 298.8998746 409.41785863 304.80566406 376.26074219 C305.05123047 374.91447754 305.05123047 374.91447754 305.30175781 373.54101562 C307.87102599 358.72525637 308.08966807 343.94296054 308.11816406 328.94824219 C308.1218399 328.02347076 308.12551575 327.09869934 308.12930298 326.14590454 C308.2742656 256.26229202 282.45823834 186.13868672 234.86425781 134.50292969 C233.08344035 132.5632917 231.37774582 130.58555796 229.68066406 128.57324219 C220.60778226 118.19217743 210.64369731 108.76116042 199.80566406 100.26074219 C198.07596439 98.80304109 196.34681207 97.34469028 194.61816406 95.88574219 C143.2581554 53.95025858 73.95930734 31.06552826 7.99316406 31.01074219 C7.25533691 31.01006744 6.51750977 31.0093927 5.75732422 31.00869751 C-71.53294036 31.11959188 -144.21033332 59.31002687 -201.19433594 111.26074219 Z " fill="#4DC7FC" transform="translate(505.1943359375,92.7392578125)"/>
<path d="M0 0 C1.52487642 -0.00807831 1.52487642 -0.00807831 3.08055842 -0.01631981 C6.47355876 -0.0305822 9.86616803 -0.02349972 13.25918579 -0.01637268 C15.69731458 -0.02207715 18.13544071 -0.0290417 20.57356262 -0.03717041 C26.50081158 -0.05324706 32.42796258 -0.05520398 38.35522173 -0.04995751 C43.17522695 -0.0459093 47.99520089 -0.04736707 52.81520462 -0.05270576 C53.50229842 -0.05345419 54.18939222 -0.05420261 54.89730705 -0.05497371 C56.29333047 -0.05650526 57.68935388 -0.0580436 59.08537729 -0.05958868 C72.16548048 -0.07330415 85.2455238 -0.0678829 98.32562561 -0.05640347 C110.27826162 -0.04647355 122.23074277 -0.05940921 134.1833549 -0.08333766 C146.4714274 -0.10775135 158.75942784 -0.11733087 171.04752409 -0.11068493 C177.94029152 -0.10719755 184.83293991 -0.10939277 191.72568893 -0.12693596 C198.20838954 -0.14323153 204.6908676 -0.13844095 211.173563 -0.11963081 C213.54950339 -0.11594693 215.9254657 -0.11904748 218.30138588 -0.1295166 C221.55144204 -0.14274144 224.80052238 -0.13116469 228.05053711 -0.11352539 C229.45192824 -0.1279329 229.45192824 -0.1279329 230.8816303 -0.14263147 C239.56042034 -0.04609733 247.74848575 2.50507013 254.13048553 8.60471821 C261.48976669 17.22714228 261.36105848 26.60007613 261.26748657 37.32444763 C261.27099277 39.02222751 261.27665696 40.72000409 261.28430176 42.41777039 C261.29848232 47.0022993 261.28155801 51.58622362 261.25801659 56.17069459 C261.23783695 60.97696287 261.24379055 65.78320781 261.24612427 70.58950806 C261.2460708 78.65343647 261.22636923 86.71712974 261.19424438 94.7809906 C261.15729353 104.10153581 261.14857848 113.42177392 261.1555419 122.74238282 C261.16184611 131.72002797 261.15109814 140.69756796 261.13157654 149.67519188 C261.12340603 153.49207242 261.12069231 157.30889919 261.12226868 161.12578773 C261.12314747 165.6165234 261.108933 170.1069671 261.08304214 174.59762573 C261.07588065 176.24516573 261.07379665 177.89273679 261.07715988 179.54028893 C261.08087511 181.78915925 261.06612715 184.03717761 261.04666138 186.28594971 C261.04293266 187.54411405 261.03920395 188.80227839 261.03536224 190.09856892 C260.6154875 193.70331566 259.89379961 195.55397413 257.6522522 198.38768005 C254.59960634 200.28987413 252.27612645 200.63691017 248.70911026 200.63377571 C247.70837833 200.63775781 246.70764639 200.6417399 245.67658925 200.64584267 C244.57932035 200.64001699 243.48205145 200.63419131 242.35153198 200.62818909 C241.18430186 200.62989794 240.01707174 200.63160679 238.81447101 200.63336742 C235.57400042 200.63609462 232.33368936 200.62983449 229.09323764 200.6198113 C225.59906947 200.61118208 222.10490886 200.61409658 218.61073303 200.61561584 C212.55663537 200.61666503 206.50258078 200.61038492 200.44849396 200.59914017 C191.69528487 200.58289269 182.94209663 200.57767793 174.1888741 200.57516418 C159.98769014 200.5707859 145.78652915 200.55747317 131.58535767 200.53855896 C117.7894604 200.52020362 103.99356937 200.50604542 90.19766235 200.49754333 C89.34741951 200.49701789 88.49717666 200.49649244 87.62116888 200.49595107 C83.35579115 200.49334101 79.09041338 200.49081359 74.82503557 200.48832726 C39.43409141 200.46759061 4.04317392 200.43236144 -31.3477478 200.38768005 C-31.4412219 176.92641661 -31.51174215 153.46518112 -31.55499649 130.00376892 C-31.57561476 119.11002881 -31.60372141 108.21640446 -31.64950562 97.32273865 C-31.68939577 87.8269426 -31.71518596 78.3312304 -31.72410178 68.8353529 C-31.72931281 63.80812386 -31.74154549 58.78113466 -31.77066803 53.75398254 C-31.79787145 49.01963351 -31.80618281 44.28562254 -31.80017853 39.55120277 C-31.80127656 37.81620762 -31.80920107 36.08120085 -31.8245697 34.34627342 C-31.97245952 16.78607475 -31.97245952 16.78607475 -25.2696228 8.9618988 C-24.55290405 8.33928162 -23.8361853 7.71666443 -23.0977478 7.07518005 C-22.39134155 6.43967224 -21.6849353 5.80416443 -20.9571228 5.1493988 C-14.19097708 0.58123755 -7.9310028 -0.0507772 0 0 Z " fill="#127EDF" transform="translate(317.3477478027344,254.61231994628906)"/>
<path d="M0 0 C9.60601299 -0.09300734 19.21186906 -0.16391997 28.8182354 -0.20724869 C33.27970247 -0.22805272 37.74085966 -0.2562376 42.20214844 -0.30175781 C46.51398861 -0.34547383 50.82553223 -0.36919103 55.13757706 -0.37950897 C56.77610054 -0.38685443 58.41460927 -0.4011976 60.05300522 -0.42292023 C71.69774553 -0.57105964 81.67652858 0.43403203 91.078125 8.01171875 C95.29225211 12.37145594 98.07019927 17.7367179 101 23 C101.76805203 24.35817311 102.53628732 25.71624258 103.3046875 27.07421875 C108.50208999 36.31754746 113.53778482 45.65114694 118.60839844 54.96435547 C121.54251884 60.34734515 124.49404343 65.71926445 127.5 71.0625 C127.84981934 71.68439209 128.19963867 72.30628418 128.56005859 72.94702148 C130.68588574 76.71100854 132.84162113 80.45667458 135.01171875 84.1953125 C152.30620816 114.05428843 152.30620816 114.05428843 152.29052734 130.19873047 C152.29724457 131.19966736 152.30396179 132.20060425 152.31088257 133.23187256 C152.32981571 136.52702861 152.33378427 139.82198051 152.3359375 143.1171875 C152.34236812 145.41732872 152.34909668 147.71746912 152.35610962 150.01760864 C152.36807028 154.83418677 152.37179163 159.65069323 152.37060547 164.46728516 C152.37040223 170.6262983 152.39771569 176.78485031 152.43214989 182.9437542 C152.45443132 187.69310602 152.45844264 192.44234702 152.45738602 197.19174576 C152.45973965 199.46185013 152.4685497 201.73195767 152.48405075 204.00201035 C152.50373746 207.18249212 152.49786182 210.3619813 152.48583984 213.54248047 C152.49707886 214.47160248 152.50831787 215.40072449 152.51989746 216.35800171 C152.43636766 225.09363483 149.55686108 232.04491867 143.64453125 238.49609375 C138.55007385 243.15492059 133.06149685 245.14141985 126.234375 245.09765625 C125.34492187 245.09443359 124.45546875 245.09121094 123.5390625 245.08789062 C122.61867188 245.07951172 121.69828125 245.07113281 120.75 245.0625 C119.81414062 245.05798828 118.87828125 245.05347656 117.9140625 245.04882812 C115.60930959 245.03706918 113.30468773 245.02063426 111 245 C110.76216797 243.58460938 110.76216797 243.58460938 110.51953125 242.140625 C108.273701 229.78235468 104.47965962 219.66090647 97.35546875 209.1796875 C96 207 96 207 96 205 C95.34 205 94.68 205 94 205 C92.64687603 203.3493604 91.31665664 201.67987227 90 200 C77.00259469 187.57706564 60.72465267 182.44801345 43.0625 182.5625 C41.97259766 182.54251953 40.88269531 182.52253906 39.75976562 182.50195312 C23.41286245 182.51166608 8.84266495 190.00747627 -3 201 C-8.09514811 206.2171314 -11.85516115 212.08840917 -15.25 218.5 C-15.56727051 219.07298828 -15.88454102 219.64597656 -16.21142578 220.23632812 C-20.19299471 228.19528147 -20.98820274 235.94691232 -23 245 C-59.96 245 -96.92 245 -135 245 C-136.32 239.39 -137.64 233.78 -139 228 C-145.0562776 210.04000435 -156.26160288 197.56555878 -172.875 188.6875 C-188.62379339 181.32468831 -208.89404246 179.8838498 -225.48217773 185.59887695 C-244.29621869 192.9229406 -256.04277214 206.51417775 -264.6171875 224.3671875 C-266.2061637 228.5416165 -266.99817758 232.54165701 -267.6875 236.9375 C-267.81705078 237.71673828 -267.94660156 238.49597656 -268.08007812 239.29882812 C-268.3946519 241.19792168 -268.69845882 243.09879356 -269 245 C-280.1651274 245.58286628 -289.24107439 246.03797354 -298.05078125 238.16796875 C-306.08465671 229.73489451 -306.42907156 221.26701646 -306.29296875 210.09375 C-306.28736317 208.75997396 -306.28309763 207.42619169 -306.28010559 206.09240723 C-306.26873227 202.6070811 -306.23933169 199.12213888 -306.20599365 195.63696289 C-306.1751291 192.07052807 -306.1615655 188.50403031 -306.14648438 184.9375 C-306.11445327 177.95817711 -306.06334979 170.97910706 -306 164 C-305.39862988 163.99940291 -304.79725976 163.99880582 -304.17766631 163.99819064 C-268.520562 163.96228191 -232.86354929 163.90562026 -197.20652399 163.82207905 C-192.92332753 163.81206182 -188.6401307 163.80221765 -184.35693359 163.79248047 C-183.50424087 163.7905391 -182.65154815 163.78859772 -181.77301626 163.78659752 C-167.97374181 163.75559246 -154.17448398 163.73860104 -140.37518127 163.72680578 C-126.21151018 163.71438647 -112.04792621 163.68686747 -97.88431013 163.64538693 C-89.14746031 163.62027383 -80.41075501 163.60688112 -71.67386858 163.60857043 C-65.67932878 163.60860023 -59.68493598 163.59393793 -53.69045348 163.56783572 C-50.23401789 163.55321544 -46.77788374 163.54496451 -43.32142258 163.55419731 C-39.56736417 163.56083564 -35.81418145 163.54291811 -32.06021118 163.51898193 C-30.97652838 163.52674235 -29.89284559 163.53450277 -28.77632391 163.54249835 C-21.29766216 163.45824733 -13.88801591 162.43250512 -8.08421957 157.3086679 C-0.66460592 149.40416324 -0.55439712 141.2579733 -0.56762695 130.89477539 C-0.55860118 129.46518104 -0.54827197 128.03559442 -0.53674316 126.60601807 C-0.5092425 122.74083272 -0.49989814 118.87579451 -0.49388909 115.01052403 C-0.4844873 110.96524466 -0.45828248 106.92007439 -0.43388367 102.87486267 C-0.39026455 95.22172697 -0.36168945 87.5686125 -0.33856028 79.91539043 C-0.31148397 71.1994906 -0.26757399 62.48370079 -0.22227156 53.76787961 C-0.12949103 35.8453112 -0.05778016 17.9227137 0 0 Z " fill="#127EDE" transform="translate(592,305)"/>
<path d="M0 0 C0.78802002 0.00346436 1.57604004 0.00692871 2.38793945 0.01049805 C11.64304072 0.18138179 19.97199867 2.33180618 28.3125 6.3125 C28.3125 6.9725 28.3125 7.6325 28.3125 8.3125 C28.93125 8.456875 29.55 8.60125 30.1875 8.75 C32.3125 9.3125 32.3125 9.3125 34.3125 10.3125 C34.3125 10.9725 34.3125 11.6325 34.3125 12.3125 C34.869375 12.53550781 35.42625 12.75851562 36 12.98828125 C45.79153884 18.59526041 51.82954218 29.70707286 54.69921875 40.17578125 C55.24962308 42.33933133 55.24962308 42.33933133 56.3125 44.3125 C57.3781045 56.04296828 56.97727864 67.40678884 52.3125 78.3125 C51.79236328 79.52873047 51.79236328 79.52873047 51.26171875 80.76953125 C50.02863136 83.41186137 48.8550913 85.7821476 46.75390625 87.8359375 C45.05309299 89.36337822 45.05309299 89.36337822 44.3125 92.3125 C33.70268388 102.7603342 20.48020596 110.51103518 5.35961914 110.59057617 C4.16067017 110.57667847 4.16067017 110.57667847 2.9375 110.5625 C2.10404053 110.55645752 1.27058105 110.55041504 0.41186523 110.54418945 C-7.47436886 110.41720315 -14.30189048 110.25206969 -20.6875 105.3125 C-21.76 104.879375 -22.8325 104.44625 -23.9375 104 C-28.32544091 102.21055772 -32.22314332 99.54290012 -35.6875 96.3125 C-35.6875 95.6525 -35.6875 94.9925 -35.6875 94.3125 C-36.3475 94.3125 -37.0075 94.3125 -37.6875 94.3125 C-37.6875 93.6525 -37.6875 92.9925 -37.6875 92.3125 C-38.3475 92.3125 -39.0075 92.3125 -39.6875 92.3125 C-41.4921875 89.8203125 -41.4921875 89.8203125 -43.5625 86.4375 C-44.57957031 84.80167969 -44.57957031 84.80167969 -45.6171875 83.1328125 C-50.79368314 73.88545652 -52.30670495 66.30844762 -52.125 55.6875 C-52.13208984 54.511875 -52.13917969 53.33625 -52.14648438 52.125 C-52.09772545 45.4487784 -51.52209309 40.36729908 -48.6875 34.3125 C-48.26210938 33.38824219 -47.83671875 32.46398437 -47.3984375 31.51171875 C-42.81879768 22.90146025 -37.45369643 14.0608564 -28.6875 9.3125 C-28.09066406 8.93867188 -27.49382812 8.56484375 -26.87890625 8.1796875 C-23.15947458 5.9141344 -20.10454944 4.74343165 -15.6875 4.3125 C-15.6875 3.6525 -15.6875 2.9925 -15.6875 2.3125 C-10.33620926 0.53816186 -5.62469623 -0.04034414 0 0 Z " fill="#043F80" transform="translate(387.6875,499.6875)"/>
<path d="M0 0 C1.175625 0.49113281 1.175625 0.49113281 2.375 0.9921875 C10.9992475 5.2119086 19.52719367 13.20027601 25 21 C25 21.99 25 22.98 25 24 C25.66 24 26.32 24 27 24 C27.63648972 25.30696675 28.25839861 26.62103353 28.875 27.9375 C29.22304688 28.66839844 29.57109375 29.39929688 29.9296875 30.15234375 C35.11416968 43.94609379 34.92180804 60.5329599 29 74 C23.40160949 85.60517424 14.42511082 95.77150554 2.625 101.125 C1.54476562 101.62257813 0.46453125 102.12015625 -0.6484375 102.6328125 C-13.0437009 107.68915538 -28.32354576 108.07196402 -40.9765625 103.453125 C-55.84838068 96.30542944 -67.027192 84.64362885 -73.1015625 69.19921875 C-77.74867498 53.49892752 -74.99911062 38.83563842 -69 24 C-68.34 24 -67.68 24 -67 24 C-67 23.01 -67 22.02 -67 21 C-66.34 21 -65.68 21 -65 21 C-64.92652344 20.43796875 -64.85304688 19.8759375 -64.77734375 19.296875 C-63.71592977 16.16063671 -61.91682334 14.55535342 -59.5625 12.25 C-58.35787109 11.05117188 -58.35787109 11.05117188 -57.12890625 9.828125 C-55 8 -55 8 -53 8 C-53 7.34 -53 6.68 -53 6 C-50.65028386 4.69964229 -48.29575663 3.40970531 -45.9375 2.125 C-45.28072266 1.76019531 -44.62394531 1.39539063 -43.94726562 1.01953125 C-30.22209462 -6.41775353 -14.25132929 -5.97764089 0 0 Z " fill="#043F80" transform="translate(657,504)"/>
<path d="M0 0 C0.75414185 -0.00241196 1.50828369 -0.00482391 2.28527832 -0.00730896 C3.87204269 -0.00633401 5.45884255 0.00697551 7.04541016 0.03198242 C9.46244838 0.06631673 11.87582944 0.05262086 14.29296875 0.03320312 C15.84116126 0.04010218 17.38934441 0.04977512 18.9375 0.0625 C19.65329224 0.05754013 20.36908447 0.05258026 21.10656738 0.04747009 C27.20177744 0.18923069 30.80627317 2.39476839 34.97265625 6.69921875 C37.97751843 11.10948614 40.41319369 15.79009074 42.90625 20.50390625 C48.02034309 30.07074305 53.26559198 39.5493437 58.65405273 48.96435547 C67.7702329 64.94988212 67.7702329 64.94988212 66.96875 71.62890625 C64.07894999 74.51870626 61.98343878 73.90250299 57.9362793 73.93530273 C57.21250092 73.94362625 56.48872253 73.95194977 55.74301147 73.96052551 C53.34294296 73.98468062 50.94314605 73.993405 48.54296875 74 C46.87628598 74.00896352 45.20960405 74.01808531 43.54292297 74.02735901 C40.04495283 74.04386747 36.54707859 74.05155224 33.04907227 74.05444336 C28.56970859 74.05982331 24.09124841 74.09747839 19.6121397 74.14318752 C16.16769639 74.17295545 12.72347045 74.18016688 9.27890968 74.18116951 C7.62788577 74.18537387 5.97686133 74.19781696 4.32596397 74.21868706 C2.01310628 74.24559258 -0.2976606 74.24078014 -2.6105957 74.22827148 C-3.92582718 74.23334213 -5.24105865 74.23841278 -6.59614563 74.24363708 C-10.90128848 73.47320808 -12.35050399 72.01388383 -15.03125 68.62890625 C-16.04648409 65.58320397 -16.16379415 63.50665819 -16.17651367 60.31884766 C-16.18608345 58.6916832 -16.18608345 58.6916832 -16.19584656 57.03164673 C-16.19695938 55.859758 -16.1980722 54.68786926 -16.19921875 53.48046875 C-16.20254715 52.27578949 -16.20587555 51.07111023 -16.20930481 49.82992554 C-16.21437139 47.27952456 -16.21671322 44.72911694 -16.21655273 42.17871094 C-16.21873731 38.2765815 -16.23689093 34.37473558 -16.25585938 30.47265625 C-16.25879371 27.99609472 -16.26077824 25.51953184 -16.26171875 23.04296875 C-16.26890427 21.87512848 -16.27608978 20.70728821 -16.28349304 19.50405884 C-16.28041641 18.41297821 -16.27733978 17.32189758 -16.27416992 16.19775391 C-16.27559494 15.24083649 -16.27701996 14.28391907 -16.27848816 13.29800415 C-15.8544246 8.71996023 -14.56161708 6.18963221 -11.40820312 2.85571289 C-7.8604987 0.1157615 -4.36524232 -0.08085488 0 0 Z " fill="#ECF4F3" transform="translate(632.03125,332.37109375)"/>
<path d="M0 0 C3.9025229 2.72887527 6.26704674 5.76126243 8.63671875 9.84375 C9.56484375 11.1740625 9.56484375 11.1740625 10.51171875 12.53125 C13.20716399 20.46783877 12.4608803 29.06021134 8.9609375 36.625 C4.75904028 43.66534696 -1.50253587 48.09023381 -9.30859375 50.42578125 C-17.03415773 51.99733134 -23.6523009 50.94288935 -30.36328125 46.84375 C-37.26227763 42.00342394 -40.72989846 36.74389838 -43.36328125 28.84375 C-44.27218188 20.3130684 -43.14538066 14.0036889 -38.36328125 6.84375 C-28.31412894 -5.378192 -13.70184701 -7.59422632 0 0 Z " fill="#127CDD" transform="translate(651.36328125,532.15625)"/>
<path d="M0 0 C7.00513914 4.31916093 11.53744414 9.24045567 14.02734375 17.25 C15.32984528 26.56174336 14.0357272 34.9208819 8.33203125 42.50390625 C2.36104756 49.0671535 -4.50134779 52.28948894 -13.34765625 52.875 C-20.74578705 52.57067973 -27.38440198 49.34380978 -32.95703125 44.5390625 C-38.37572472 38.61068994 -40.531435 32.28729401 -40.41015625 24.3125 C-40.40185791 23.60810791 -40.39355957 22.90371582 -40.38500977 22.17797852 C-40.20417364 16.62225517 -39.41978002 12.61772063 -35.97265625 8.25 C-35.48667969 7.62738281 -35.00070312 7.00476563 -34.5 6.36328125 C-25.79374463 -3.45441098 -11.68511726 -6.08555836 0 0 Z " fill="#127CDD" transform="translate(402.97265625,530.75)"/>
<path d="M0 0 C1.29873047 0.00644531 2.59746094 0.01289063 3.93554688 0.01953125 C5.30729432 0.0362419 6.67903911 0.05317179 8.05078125 0.0703125 C9.43423843 0.08034576 10.81770252 0.08947101 12.20117188 0.09765625 C15.58861582 0.12126213 18.9759702 0.15713367 22.36328125 0.1953125 C22.36328125 9.4353125 22.36328125 18.6753125 22.36328125 28.1953125 C18.21765625 28.2984375 14.07203125 28.4015625 9.80078125 28.5078125 C7.86029907 28.57609253 7.86029907 28.57609253 5.88061523 28.64575195 C-1.34267127 28.73263093 -5.36490863 28.28942116 -10.63671875 23.1953125 C-13.65571965 18.03379483 -14.2835215 14.01653721 -13.63671875 8.1953125 C-10.11862426 1.64437793 -7.31975833 -0.06392802 0 0 Z " fill="#EEF5F4" transform="translate(721.63671875,468.8046875)"/>
<path d="M0 0 C1.5 1.0625 1.5 1.0625 3 3 C3.3125 6.5625 3.3125 6.5625 3 10 C1 12 1 12 -2.01187134 12.24050903 C-3.95046524 12.2338472 -3.95046524 12.2338472 -5.92822266 12.22705078 C-6.99667671 12.22748886 -6.99667671 12.22748886 -8.0867157 12.22793579 C-10.44595434 12.22654016 -12.80487889 12.21096827 -15.1640625 12.1953125 C-16.79788032 12.19158319 -18.43170038 12.18873583 -20.06552124 12.18673706 C-24.36952876 12.1790941 -28.67340168 12.15943999 -32.97735596 12.1373291 C-37.36769795 12.1168849 -41.75806165 12.1077384 -46.1484375 12.09765625 C-54.76568682 12.07619466 -63.38282668 12.04205081 -72 12 C-72 11.67 -72 11.34 -72 11 C-36.36 10.505 -36.36 10.505 0 10 C-23.76 9.67 -47.52 9.34 -72 9 C-72 8.34 -72 7.68 -72 7 C-47.58 7 -23.16 7 2 7 C1.34 4.69 0.68 2.38 0 0 Z " fill="#EEFAFD" transform="translate(696,394)"/>
<path d="M0 0 C0.66 0.33 1.32 0.66 2 1 C2 5.29 2 9.58 2 14 C2.66 14 3.32 14 4 14 C4 10.04 4 6.08 4 2 C4.33 2 4.66 2 5 2 C5 30.38 5 58.76 5 88 C4.67 88 4.34 88 4 88 C3.67 85.69 3.34 83.38 3 81 C2.95101562 81.86882812 2.90203125 82.73765625 2.8515625 83.6328125 C2.77679687 84.78523438 2.70203125 85.93765625 2.625 87.125 C2.55539062 88.26195312 2.48578125 89.39890625 2.4140625 90.5703125 C2.00556124 93.95393616 1.19032431 96.81612441 0 100 C-0.33 100 -0.66 100 -1 100 C-0.60961174 92.92164436 -0.20579999 85.85442178 0.51171875 78.80078125 C2.75097371 56.56732614 2.43903902 34.62980053 0.4375 12.38671875 C0.06959133 8.23265622 -0.09406444 4.16823036 0 0 Z " fill="#2B1D18" transform="translate(843,375)"/>
<path d="M0 0 C0.33 0 0.66 0 1 0 C1 14.19 1 28.38 1 43 C-2.63 42.67 -6.26 42.34 -10 42 C-10 41.67 -10 41.34 -10 41 C-8.35 41 -6.7 41 -5 41 C-5 28.46 -5 15.92 -5 3 C-4.34 3 -3.68 3 -3 3 C-3 15.21 -3 27.42 -3 40 C-2.34 40 -1.68 40 -1 40 C-1.00785522 38.23571655 -1.00785522 38.23571655 -1.01586914 36.43579102 C-1.03391663 32.08797969 -1.04543108 27.7401717 -1.05493164 23.39233398 C-1.05997244 21.5075627 -1.06680498 19.62279535 -1.07543945 17.73803711 C-1.08751617 15.03498364 -1.09323068 12.33198169 -1.09765625 9.62890625 C-1.10281754 8.78099014 -1.10797882 7.93307404 -1.11329651 7.0594635 C-1.11349195 5.03928932 -1.06206211 3.01922066 -1 1 C-0.67 0.67 -0.34 0.34 0 0 Z " fill="#0C81E9" transform="translate(742,425)"/>
<path d="M0 0 C0.66 0.33 1.32 0.66 2 1 C2.0252689 7.81761894 2.04283244 14.63522589 2.05493164 21.45288086 C2.05997333 23.77417451 2.06680651 26.09546497 2.07543945 28.41674805 C2.08751225 31.74528795 2.09322979 35.07378602 2.09765625 38.40234375 C2.10281754 39.44712387 2.10797882 40.49190399 2.11329651 41.56834412 C2.11337204 42.52926468 2.11344757 43.49018524 2.11352539 44.48022461 C2.115746 45.33071884 2.11796661 46.18121307 2.12025452 47.05747986 C2 49 2 49 1 50 C0.45900338 52.60207614 -0.03765672 55.19636945 -0.5 57.8125 C-1.98133543 66.06251169 -1.98133543 66.06251169 -3 70 C-3.99 70 -4.98 70 -6 70 C-5.87375244 69.26354248 -5.74750488 68.52708496 -5.61743164 67.76831055 C-1.78982885 45.16765549 -0.38400339 22.87684261 0 0 Z " fill="#5ECAEA" transform="translate(813,411)"/>
<path d="M0 0 C0.33 0 0.66 0 1 0 C1 14.52 1 29.04 1 44 C-9.56 44 -20.12 44 -31 44 C-30 42 -30 42 -27.5234375 40.8828125 C-23.13421681 39.78307428 -19.12562086 39.78168569 -14.625 39.875 C-13.79355469 39.88402344 -12.96210937 39.89304687 -12.10546875 39.90234375 C-10.07018663 39.9257378 -8.03505436 39.96160275 -6 40 C-6 40.33 -6 40.66 -6 41 C-4.35 41.33 -2.7 41.66 -1 42 C-0.67 28.14 -0.34 14.28 0 0 Z " fill="#1274CD" transform="translate(743,425)"/>
<path d="M0 0 C9.57 0 19.14 0 29 0 C29 9.24 29 18.48 29 28 C20.42 28 11.84 28 3 28 C3 27.67 3 27.34 3 27 C10.92 26.67 18.84 26.34 27 26 C27 18.08 27 10.16 27 2 C17.76 2 8.52 2 -1 2 C-0.67 1.34 -0.34 0.68 0 0 Z " fill="#ECFCFD" transform="translate(715,469)"/>
<path d="M0 0 C0.33 0 0.66 0 1 0 C1.05012882 5.68846409 1.08605748 11.37679442 1.10986328 17.06542969 C1.11980679 18.9931869 1.13336635 20.9209295 1.15087891 22.84863281 C1.2457028 33.56931034 1.05696834 43.97788453 -0.5546875 54.58984375 C-1.22597437 59.73048792 -1.17635018 64.82706152 -1 70 C-2.485 70.495 -2.485 70.495 -4 71 C-3.67 73.31 -3.34 75.62 -3 78 C-3.33 77.34 -3.66 76.68 -4 76 C-4.66 76 -5.32 76 -6 76 C-5.19439402 68.42420534 -4.17687322 60.88991941 -3.10546875 53.34765625 C-1.38582038 40.99745434 -0.75694633 28.76308361 -0.4375 16.3125 C-0.39419808 14.72460067 -0.35058057 13.13670992 -0.30664062 11.54882812 C-0.20079311 7.69930779 -0.09920091 3.84969711 0 0 Z " fill="#13232B" transform="translate(844,410)"/>
<path d="M0 0 C0.33 0 0.66 0 1 0 C3.64788732 19.52816901 3.64788732 19.52816901 0 25 C-0.45772063 27.73872955 -0.45772063 27.73872955 -0.625 30.6875 C-0.69976563 31.68136719 -0.77453125 32.67523438 -0.8515625 33.69921875 C-0.90054688 34.45847656 -0.94953125 35.21773438 -1 36 C-1.33 36 -1.66 36 -2 36 C-3.58558559 18.75675676 -3.58558559 18.75675676 -2 14 C-1.96125079 12.33378384 -1.9549714 10.66605828 -2 9 C-1.34 9 -0.68 9 0 9 C0 6.03 0 3.06 0 0 Z " fill="#53C0EB" transform="translate(842,385)"/>
<path d="M0 0 C0 9.9 0 19.8 0 30 C-2 28 -2 28 -2.22705078 25.38623047 C-2.21657715 24.30744629 -2.20610352 23.22866211 -2.1953125 22.1171875 C-2.18886719 20.95058594 -2.18242188 19.78398438 -2.17578125 18.58203125 C-2.15902344 17.35871094 -2.14226563 16.13539063 -2.125 14.875 C-2.11597656 13.64394531 -2.10695313 12.41289062 -2.09765625 11.14453125 C-2.07402548 8.09616185 -2.04108054 5.04817618 -2 2 C-3.32 2.33 -4.64 2.66 -6 3 C-6 2.34 -6 1.68 -6 1 C-3.92446352 0.4465236 -2.15634036 0 0 0 Z " fill="#0982EE" transform="translate(743,498)"/>
<path d="M0 0 C1.19292257 2.38584514 2.36394368 4.77338031 3.5 7.1875 C4.70021344 10.0912513 4.70021344 10.0912513 7 11 C7.83821823 12.99680259 8.46575091 15.02644999 9.12109375 17.08984375 C9.95959902 19.35151853 9.95959902 19.35151853 13 21 C13.984375 23.05859375 13.984375 23.05859375 14.75 25.4375 C15.01296875 26.21996094 15.2759375 27.00242187 15.546875 27.80859375 C16 30 16 30 15 33 C12.69013934 28.78937585 10.39357894 24.57187784 8.10913086 20.34741211 C7.32988522 18.91086571 6.54701975 17.4762768 5.76049805 16.04370117 C4.63156569 13.98598157 3.51577326 11.92160862 2.40234375 9.85546875 C2.047202 9.21473923 1.69206024 8.5740097 1.32615662 7.91386414 C0.47294308 6.31506927 -0.27300548 4.6599992 -1 3 C-0.67 2.01 -0.34 1.02 0 0 Z " fill="#0F68C5" transform="translate(672,344)"/>
<path d="M0 0 C0.96793329 3.05009557 0.99918252 4.92208849 0.109375 7.984375 C-0.10436768 8.7477417 -0.31811035 9.5111084 -0.53833008 10.29760742 C-0.77318115 11.10689697 -1.00803223 11.91618652 -1.25 12.75 C-3.66471058 21.435399 -5.49286569 30.11648473 -7 39 C-7.33 39 -7.66 39 -8 39 C-8.98431687 32.65662463 -9.7295359 27.59430386 -6 22 C-5.52904698 20.56844008 -5.11582298 19.11722941 -4.74609375 17.65625 C-4.53146484 16.82222656 -4.31683594 15.98820312 -4.09570312 15.12890625 C-3.87849609 14.26136719 -3.66128906 13.39382813 -3.4375 12.5 C-2.99946273 10.78105492 -2.56069111 9.06229677 -2.12109375 7.34375 C-1.9295874 6.58255859 -1.73808105 5.82136719 -1.54077148 5.03710938 C-1.09027148 3.34005653 -0.55524217 1.6657265 0 0 Z " fill="#71DAEE" transform="translate(219,336)"/>
<path d="M0 0 C3.07760589 4.61640883 4.72941915 9.76538228 6.6875 14.9375 C7.11611328 16.03513672 7.54472656 17.13277344 7.98632812 18.26367188 C8.38658203 19.32005859 8.78683594 20.37644531 9.19921875 21.46484375 C9.56877686 22.430271 9.93833496 23.39569824 10.3190918 24.39038086 C11.02627795 27.10071171 10.95942897 28.40927411 10 31 C8.18757677 26.9811485 6.66498383 23.38889325 6 19 C4.68 18.67 3.36 18.34 2 18 C1.67 16.68 1.34 15.36 1 14 C1.99 14 2.98 14 4 14 C3.71125 13.32453125 3.4225 12.6490625 3.125 11.953125 C2.75375 11.06109375 2.3825 10.1690625 2 9.25 C1.62875 8.36828125 1.2575 7.4865625 0.875 6.578125 C0 4 0 4 0 0 Z " fill="#64CCED" transform="translate(818,294)"/>
<path d="M0 0 C2 3 2 3 1.7578125 4.9453125 C1.54898438 5.66460937 1.34015625 6.38390625 1.125 7.125 C-0.09274419 11.87888598 -0.1554222 16.10420069 0 21 C-0.99 21.33 -1.98 21.66 -3 22 C-3 23.32 -3 24.64 -3 26 C-3.66 26 -4.32 26 -5 26 C-4.35343144 17.10968231 -2.12977433 8.62806252 0 0 Z " fill="#5AC9E9" transform="translate(187,340)"/>
<path d="M0 0 C2.64 0 5.28 0 8 0 C8 0.66 8 1.32 8 2 C9.32 2 10.64 2 12 2 C12.66 2.66 13.32 3.32 14 4 C14.66 4.33 15.32 4.66 16 5 C17.5439601 5.85001413 19.08535365 6.70469703 20.625 7.5625 C21.44226563 8.01753906 22.25953125 8.47257813 23.1015625 8.94140625 C23.72804688 9.29074219 24.35453125 9.64007813 25 10 C21.23263061 11.2557898 20.41617549 10.55901858 16.89453125 8.91015625 C15.91162109 8.45576172 14.92871094 8.00136719 13.91601562 7.53320312 C12.89185547 7.04787109 11.86769531 6.56253906 10.8125 6.0625 C9.77673828 5.58103516 8.74097656 5.09957031 7.67382812 4.60351562 C5.11168669 3.41099818 2.55413237 2.20955259 0 1 C0 0.67 0 0.34 0 0 Z M12 0 C12.66 0 13.32 0 14 0 C14 0.66 14 1.32 14 2 C13.34 2 12.68 2 12 2 C12 1.34 12 0.68 12 0 Z " fill="#60D1F1" transform="translate(624,145)"/>
<path d="M0 0 C0 0.66 0 1.32 0 2 C0.99 2.33 1.98 2.66 3 3 C-0.75 4.125 -0.75 4.125 -3 3 C-4.4465242 2.84932786 -5.8987934 2.75138964 -7.3515625 2.68359375 C-8.62773438 2.62075195 -8.62773438 2.62075195 -9.9296875 2.55664062 C-10.81914063 2.51732422 -11.70859375 2.47800781 -12.625 2.4375 C-13.5221875 2.39431641 -14.419375 2.35113281 -15.34375 2.30664062 C-17.56234283 2.20043139 -19.7810488 2.09838806 -22 2 C-22 1.34 -22 0.68 -22 0 C-18.70880065 -0.1964031 -15.41703066 -0.38060745 -12.125 -0.5625 C-11.18785156 -0.61857422 -10.25070312 -0.67464844 -9.28515625 -0.73242188 C-8.38925781 -0.78076172 -7.49335937 -0.82910156 -6.5703125 -0.87890625 C-5.74289551 -0.9260376 -4.91547852 -0.97316895 -4.06298828 -1.02172852 C-2 -1 -2 -1 0 0 Z " fill="#177BD4" transform="translate(726,545)"/>
<path d="M0 0 C0.33 0.66 0.66 1.32 1 2 C2.89533342 2.46523063 2.89533342 2.46523063 5.0625 2.625 C6.361875 2.74875 7.66125 2.8725 9 3 C6.48115349 5.51884651 4.56355758 5.8257588 1.125 6.6875 C0.07570313 6.95949219 -0.97359375 7.23148438 -2.0546875 7.51171875 C-4.85166838 7.97540921 -6.372192 7.94575698 -9 7 C-8.67 6.01 -8.34 5.02 -8 4 C-5.69 4 -3.38 4 -1 4 C-0.67 2.68 -0.34 1.36 0 0 Z " fill="#58CEF3" transform="translate(429,129)"/>
<path d="M0 0 C-1.61068359 0.90492188 -1.61068359 0.90492188 -3.25390625 1.828125 C-4.69011144 2.63540373 -6.12630894 3.44269613 -7.5625 4.25 C-8.26697266 4.64574219 -8.97144531 5.04148438 -9.69726562 5.44921875 C-14.14199666 7.94809979 -18.57567024 10.46516718 -23 13 C-23 11.35 -23 9.7 -23 8 C-22.34 7.67 -21.68 7.34 -21 7 C-21 7.66 -21 8.32 -21 9 C-20.01 8.34 -19.02 7.68 -18 7 C-17.01 6.67 -16.02 6.34 -15 6 C-14.2884375 5.2265625 -14.2884375 5.2265625 -13.5625 4.4375 C-12 3 -12 3 -8 3 C-8 2.01 -8 1.02 -8 0 C-4.71303767 -0.79953138 -3.28976808 -1.09658936 0 0 Z " fill="#60CEEE" transform="translate(362,163)"/>
<path d="M0 0 C2 2 2 2 3 5 C3.66 5 4.32 5 5 5 C5.04241723 7.33294775 5.04092937 9.66702567 5 12 C4.67 12.33 4.34 12.66 4 13 C3.92820036 14.51928038 3.91607993 16.04167482 3.9375 17.5625 C3.94652344 18.38878906 3.95554687 19.21507812 3.96484375 20.06640625 C3.97644531 20.70449219 3.98804688 21.34257812 4 22 C3.67 22 3.34 22 3 22 C2.49599549 19.08397391 1.99665334 16.16727908 1.5 13.25 C1.35691406 12.425 1.21382812 11.6 1.06640625 10.75 C0.93105469 9.95078125 0.79570313 9.1515625 0.65625 8.328125 C0.53056641 7.5949707 0.40488281 6.86181641 0.27539062 6.10644531 C0 4 0 4 0 0 Z M6 2 C6.33 2.99 6.66 3.98 7 5 C6.34 4.67 5.68 4.34 5 4 C5.33 3.34 5.66 2.68 6 2 Z " fill="#62D0F1" transform="translate(808,363)"/>
<path d="M0 0 C1.99748343 3.99496685 2.85053728 7.60287958 3.625 11.9375 C3.7590625 12.64068359 3.893125 13.34386719 4.03125 14.06835938 C4.7082969 17.75411981 5.16137372 21.25172849 5 25 C2.60236815 22.60236815 2.65719414 21.66726502 2.375 18.375 C2.30023438 17.55773437 2.22546875 16.74046875 2.1484375 15.8984375 C2.07496094 14.95871094 2.07496094 14.95871094 2 14 C1.01 13.67 0.02 13.34 -1 13 C-0.34 12.67 0.32 12.34 1 12 C0.34 11.67 -0.32 11.34 -1 11 C-0.67 7.37 -0.34 3.74 0 0 Z " fill="#11171A" transform="translate(180,472)"/>
<path d="M0 0 C0 3.94720688 -1.52509109 5.01555103 -4 8 C-5.13350534 10.01669827 -5.13350534 10.01669827 -6 12 C-6.66666667 13.33333333 -7.33333333 14.66666667 -8 16 C-8.66 15.34 -9.32 14.68 -10 14 C-10.99 14.66 -11.98 15.32 -13 16 C-11.3383196 11.87582937 -8.37661982 8.93445961 -5.375 5.75 C-4.859375 5.19570313 -4.34375 4.64140625 -3.8125 4.0703125 C-2.54574965 2.7097288 -1.27342185 1.35434163 0 0 Z " fill="#5ECFF2" transform="translate(530,864)"/>
<path d="M0 0 C0 3 0 3 -2 6 C-2 6.66 -2 7.32 -2 8 C-2.66 8 -3.32 8 -4 8 C-4.226875 8.598125 -4.45375 9.19625 -4.6875 9.8125 C-6.33935661 12.56559434 -8.23852733 13.44224619 -11 15 C-11.33 15.66 -11.66 16.32 -12 17 C-12.66 16.67 -13.32 16.34 -14 16 C-12.60770997 14.26797907 -11.21099444 12.53951516 -9.8125 10.8125 C-9.03519531 9.84957031 -8.25789062 8.88664063 -7.45703125 7.89453125 C-5.08191073 5.09649579 -2.62917223 2.5544533 0 0 Z " fill="#61D4F3" transform="translate(623,759)"/>
<path d="M0 0 C-0.33 0.99 -0.66 1.98 -1 3 C-3.22265625 4.02734375 -3.22265625 4.02734375 -6.0625 4.9375 C-14.70598454 7.78225859 -14.70598454 7.78225859 -22 13 C-22.66 12.34 -23.32 11.68 -24 11 C-20.56778191 9.15664797 -17.12840873 7.32707091 -13.6875 5.5 C-12.22280273 4.71302734 -12.22280273 4.71302734 -10.72851562 3.91015625 C-9.79072266 3.41386719 -8.85292969 2.91757813 -7.88671875 2.40625 C-7.02264404 1.94541016 -6.15856934 1.48457031 -5.26831055 1.00976562 C-3 0 -3 0 0 0 Z " fill="#67D1ED" transform="translate(372,123)"/>
<path d="M0 0 C0 0.99 0 1.98 0 3 C-0.66 3.66 -1.32 4.32 -2 5 C-1.67 5.66 -1.34 6.32 -1 7 C-2 9 -2 9 -4.375 10.125 C-7 11 -7 11 -10 11 C-6.7 7.37 -3.4 3.74 0 0 Z M3 0 C3.66 0 4.32 0 5 0 C3.95125002 2.62187494 3.35068687 3.79371361 0.875 5.25 C0.25625 5.4975 -0.3625 5.745 -1 6 C0.2739589 3.96166576 1.61061923 1.96147874 3 0 Z " fill="#141718" transform="translate(682,738)"/>
<path d="M0 0 C1 2 1 2 0.25 4.9375 C-1 8 -1 8 -2.34765625 9.2421875 C-4.79949412 11.85052566 -6.15223068 14.99196031 -7.6875 18.1875 C-8.00783203 18.84169922 -8.32816406 19.49589844 -8.65820312 20.16992188 C-9.44428292 21.77727907 -10.22288683 23.38828858 -11 25 C-12 22 -12 22 -11.11962891 19.74755859 C-10.65991699 18.88984863 -10.20020508 18.03213867 -9.7265625 17.1484375 C-9.2315625 16.21515625 -8.7365625 15.281875 -8.2265625 14.3203125 C-7.69804687 13.34835937 -7.16953125 12.37640625 -6.625 11.375 C-6.10421875 10.3953125 -5.5834375 9.415625 -5.046875 8.40625 C-1.18759301 1.18759301 -1.18759301 1.18759301 0 0 Z " fill="#69D2EA" transform="translate(221,258)"/>
<path d="M0 0 C0.66 0.33 1.32 0.66 2 1 C1.875 2.75 1.875 2.75 1 5 C-0.98075027 6.36176581 -2.98079663 7.69593116 -5 9 C-5.33 9.99 -5.66 10.98 -6 12 C-6.99 11.67 -7.98 11.34 -9 11 C-7.59155282 7.78475695 -5.89655214 5.67816132 -3.375 3.25 C-2.74335937 2.63640625 -2.11171875 2.0228125 -1.4609375 1.390625 C-0.73777344 0.70226562 -0.73777344 0.70226562 0 0 Z " fill="#5BCFF5" transform="translate(556,835)"/>
<path d="M0 0 C0.66 0.99 1.32 1.98 2 3 C2.33 2.01 2.66 1.02 3 0 C3.66 0 4.32 0 5 0 C4.58578031 4.83256305 2.53586014 6.82679218 -1 10 C-1.66 9.67 -2.32 9.34 -3 9 C-2.01 6.03 -1.02 3.06 0 0 Z " fill="#182128" transform="translate(328,526)"/>
<path d="M0 0 C1 2 1 2 1.3125 3.875 C2.2315282 6.71563262 3.83832034 7.96184489 6 10 C10 14.55555556 10 14.55555556 10 18 C6.40887957 14.50450112 2.8700626 10.96023324 -0.5 7.25 C-1.0053125 6.69828125 -1.510625 6.1465625 -2.03125 5.578125 C-2.3509375 5.05734375 -2.670625 4.5365625 -3 4 C-2.67 3.01 -2.34 2.02 -2 1 C-1.34 0.67 -0.68 0.34 0 0 Z " fill="#121618" transform="translate(447,808)"/>
<path d="M0 0 C5.88173015 3.02034792 7.74854916 6.99613109 10 13 C10.37125 13.928125 10.7425 14.85625 11.125 15.8125 C11.41375 16.534375 11.7025 17.25625 12 18 C8.69955174 14.922555 6.24183581 11.63121175 3.75 7.875 C3.04359375 6.82054687 2.3371875 5.76609375 1.609375 4.6796875 C0 2 0 2 0 0 Z " fill="#111519" transform="translate(259,584)"/>
<path d="M0 0 C0.66 0 1.32 0 2 0 C2.12117187 0.88042969 2.24234375 1.76085937 2.3671875 2.66796875 C2.53476562 3.82941406 2.70234375 4.99085938 2.875 6.1875 C3.03742187 7.33605469 3.19984375 8.48460937 3.3671875 9.66796875 C3.94060245 12.68724625 4.74759043 15.20575848 6 18 C4.68 17.34 3.36 16.68 2 16 C2 14.68 2 13.36 2 12 C1.34 12 0.68 12 0 12 C0 8.04 0 4.08 0 0 Z " fill="#087FED" transform="translate(705,476)"/>
<path d="M0 0 C0.99 1.485 0.99 1.485 2 3 C2.66 2.01 3.32 1.02 4 0 C5.60355101 3.50776784 6.22036864 6.14354879 6 10 C5.34 9.34 4.68 8.68 4 8 C3.67 8.66 3.34 9.32 3 10 C2.34 10 1.68 10 1 10 C0.67 6.7 0.34 3.4 0 0 Z " fill="#151C26" transform="translate(448,528)"/>
<path d="M0 0 C1.85610526 2.7841579 3.26903445 5.47610783 4.6875 8.5 C5.14511719 9.4590625 5.60273438 10.418125 6.07421875 11.40625 C7 14 7 14 6 17 C5.78085938 16.43410156 5.56171875 15.86820313 5.3359375 15.28515625 C4.36066957 13.02935359 3.40765852 11.01764387 2 9 C-1.12133744 7.86521065 -1.12133744 7.86521065 -4 8 C-3.34 7.34 -2.68 6.68 -2 6 C-1.01 6 -0.02 6 1 6 C0.67 4.02 0.34 2.04 0 0 Z " fill="#61CEEE" transform="translate(228,528)"/>
<path d="M0 0 C4.67791382 1.57120769 8.29924729 4.13119616 12.25 7 C12.88679687 7.45117188 13.52359375 7.90234375 14.1796875 8.3671875 C18.87017234 11.74034468 18.87017234 11.74034468 20 14 C13.61084612 11.74500451 3.16787859 6.33575718 0 0 Z " fill="#69D8F1" transform="translate(697,150)"/>
<path d="M0 0 C3.96 1.98 3.96 1.98 8 4 C7.67 4.66 7.34 5.32 7 6 C7.80767387 7.94996045 7.80767387 7.94996045 9 10 C9.66666667 11.33333333 10.33333333 12.66666667 11 14 C7.11807874 10.23225289 3.20468119 6.37202211 0 2 C0 1.34 0 0.68 0 0 Z " fill="#64D5F4" transform="translate(296,685)"/>
<path d="M0 0 C0 3.92998307 -1.27858835 6.49342071 -3 10 C-3.99 10.66 -4.98 11.32 -6 12 C-6.66 11.34 -7.32 10.68 -8 10 C-5.36 6.7 -2.72 3.4 0 0 Z " fill="#5ACFF5" transform="translate(691,679)"/>
<path d="M0 0 C0.928125 0.2784375 0.928125 0.2784375 1.875 0.5625 C4.04160178 1.23686176 4.04160178 1.23686176 6 0 C4.50902342 3.7952131 2.24299151 5.61042731 -1 8 C-1.93065133 5.39417629 -2.14917407 4.35801776 -1.0625 1.75 C-0.711875 1.1725 -0.36125 0.595 0 0 Z " fill="#181513" transform="translate(522,865)"/>
<path d="M0 0 C0.99 0.33 1.98 0.66 3 1 C3 1.99 3 2.98 3 4 C2.34 4 1.68 4 1 4 C1 5.32 1 6.64 1 8 C0.01 8.33 -0.98 8.66 -2 9 C-2.66 8.67 -3.32 8.34 -4 8 C-2.87548273 5.0280615 -1.77706209 2.66559313 0 0 Z " fill="#171717" transform="translate(791,598)"/>
<path d="M0 0 C3.14122613 2.09415076 3.44601574 2.47580705 4.5625 5.8125 C5.38446907 8.21317157 6.21709191 10.4884568 7.25 12.8125 C8 15 8 15 7 18 C5.82887054 15.37690901 4.66294036 12.75171858 3.5 10.125 C3.16613281 9.37863281 2.83226562 8.63226562 2.48828125 7.86328125 C2.17246094 7.14785156 1.85664063 6.43242188 1.53125 5.6953125 C1.23798828 5.03547363 0.94472656 4.37563477 0.64257812 3.69580078 C0 2 0 2 0 0 Z " fill="#69D6F3" transform="translate(199,537)"/>
<path d="M0 0 C0.33 0.66 0.66 1.32 1 2 C-2.83607274 3.48211901 -5.07542564 4.26599173 -9 3 C-10.66623639 2.96213099 -12.33397597 2.95372155 -14 3 C-9.25294723 -0.16470185 -5.68228705 -0.10927475 0 0 Z " fill="#60D1F2" transform="translate(449,99)"/>
<path d="M0 0 C0 4.41236026 -2.0697293 5.78384923 -5 9 C-5.33 9 -5.66 9 -6 9 C-6 6.69 -6 4.38 -6 2 C-4.02 1.34 -2.04 0.68 0 0 Z " fill="#5ACCF2" transform="translate(679,739)"/>
<path d="M0 0 C0 0.99 0 1.98 0 3 C-1.96875 4.82421875 -1.96875 4.82421875 -4.5 6.6875 C-5.3353125 7.31011719 -6.170625 7.93273437 -7.03125 8.57421875 C-7.6809375 9.04472656 -8.330625 9.51523437 -9 10 C-9 6.47899095 -8.41671132 5.89968686 -6.1875 3.3125 C-5.40439453 2.37857422 -5.40439453 2.37857422 -4.60546875 1.42578125 C-3 0 -3 0 0 0 Z " fill="#171515" transform="translate(717,700)"/>
<path d="M0 0 C0.99 0 1.98 0 3 0 C3.25 2.3125 3.25 2.3125 3 5 C1.1875 6.8125 1.1875 6.8125 -1 8 C-1.99 8 -2.98 8 -4 8 C-2.87548273 5.0280615 -1.77706209 2.66559313 0 0 Z " fill="#56D0F9" transform="translate(764,582)"/>
<path d="M0 0 C0.78117187 0.47566406 0.78117187 0.47566406 1.578125 0.9609375 C4.67408709 2.28920511 7.39404121 2.42364247 10.75 2.625 C12.50570313 2.73714844 12.50570313 2.73714844 14.296875 2.8515625 C15.63492187 2.92503906 15.63492187 2.92503906 17 3 C17 3.33 17 3.66 17 4 C10.73 4 4.46 4 -2 4 C-1.34 2.68 -0.68 1.36 0 0 Z " fill="#216DB0" transform="translate(379,483)"/>
<path d="M0 0 C5 2 5 2 6.1796875 4.05859375 C6.40914062 4.84363281 6.63859375 5.62867188 6.875 6.4375 C7.11992188 7.21996094 7.36484375 8.00242187 7.6171875 8.80859375 C8 11 8 11 7 14 C4.69 9.38 2.38 4.76 0 0 Z " fill="#1671CB" transform="translate(680,363)"/>
<path d="M0 0 C0.66 0.33 1.32 0.66 2 1 C1.34 2.32 0.68 3.64 0 5 C-0.66 5 -1.32 5 -2 5 C-2.33 5.99 -2.66 6.98 -3 8 C-4.65 8.33 -6.3 8.66 -8 9 C-7.04270084 7.87411986 -6.08412105 6.7493285 -5.125 5.625 C-4.59132813 4.99851563 -4.05765625 4.37203125 -3.5078125 3.7265625 C-2.38567993 2.44163349 -1.20628025 1.20628025 0 0 Z " fill="#5CD4F9" transform="translate(265,199)"/>
<path d="M0 0 C2.64 1.98 5.28 3.96 8 6 C7.67 6.66 7.34 7.32 7 8 C6.01 7.67 5.02 7.34 4 7 C2.66893378 6.65772583 1.33599921 6.32248257 0 6 C0 4.02 0 2.04 0 0 Z " fill="#1D1715" transform="translate(470,889)"/>
<path d="M0 0 C0.99 0.33 1.98 0.66 3 1 C0.68462045 4.72114571 -1.28579473 7.61229661 -5 10 C-4.34 7.36 -3.68 4.72 -3 2 C-2.01 2 -1.02 2 0 2 C0 1.34 0 0.68 0 0 Z " fill="#5AD0F2" transform="translate(565,866)"/>
<path d="M0 0 C0.66 0.99 1.32 1.98 2 3 C1.38125 3.556875 0.7625 4.11375 0.125 4.6875 C-2.13345329 6.86788272 -2.13345329 6.86788272 -3.0625 9.6875 C-3.5265625 10.8321875 -3.5265625 10.8321875 -4 12 C-4.99 12.33 -5.98 12.66 -7 13 C-5.58832253 7.73829306 -3.25149768 4.27828642 0 0 Z " fill="#61D6F4" transform="translate(229,245)"/>
<path d="M0 0 C0.66 0.33 1.32 0.66 2 1 C-0.09415076 4.14122613 -0.47580705 4.44601574 -3.8125 5.5625 C-4.52019531 5.80742187 -5.22789062 6.05234375 -5.95703125 6.3046875 C-6.96830078 6.64886719 -6.96830078 6.64886719 -8 7 C-9.66905395 7.66066719 -11.3369416 8.32438252 -13 9 C-9.49391962 4.88416651 -4.95371163 2.09432982 0 0 Z " fill="#68D5F1" transform="translate(346,135)"/>
<path d="M0 0 C0.33 0.66 0.66 1.32 1 2 C-1.01577062 6.50584021 -3.83128248 8.49876949 -8 11 C-6.63629701 8.00779732 -5.05091917 5.70973471 -2.875 3.25 C-2.33617187 2.63640625 -1.79734375 2.0228125 -1.2421875 1.390625 C-0.62730469 0.70226562 -0.62730469 0.70226562 0 0 Z " fill="#171112" transform="translate(705,711)"/>
<path d="M0 0 C0.33 1.32 0.66 2.64 1 4 C-1.64 6.31 -4.28 8.62 -7 11 C-7 7.22089522 -6.00296038 6.53893899 -3.5 3.8125 C-2.8503125 3.09707031 -2.200625 2.38164063 -1.53125 1.64453125 C-1.0259375 1.10183594 -0.520625 0.55914063 0 0 Z " fill="#141213" transform="translate(724,688)"/>
<path d="M0 0 C0.99 0 1.98 0 3 0 C0.99155908 4.92980953 -2.64105074 8.09403383 -7 11 C-5.50897439 6.39137539 -3.30545582 3.46669756 0 0 Z " fill="#151819" transform="translate(768,631)"/>
<path d="M0 0 C0 4.07746885 -1.52068051 5.83198065 -4 9 C-6.25 9.875 -6.25 9.875 -8 10 C-6.44303593 6.17836093 -3.96591316 3.81381505 -1 1 C-0.67 0.67 -0.34 0.34 0 0 Z " fill="#57D1F9" transform="translate(745,612)"/>
<path d="M0 0 C3.26222409 3.02920808 5.53842598 6.30763898 8 10 C8.66 10.33 9.32 10.66 10 11 C9.67 12.32 9.34 13.64 9 15 C7.67981412 13.25579087 6.36911398 11.50439909 5.0625 9.75 C4.33160156 8.77546875 3.60070312 7.8009375 2.84765625 6.796875 C1.24654921 4.3732119 0.42363762 2.8242508 0 0 Z " fill="#68D1EA" transform="translate(229,595)"/>
<path d="M0 0 C0.33 0.99 0.66 1.98 1 3 C-0.75 6.1875 -0.75 6.1875 -3 9 C-3.99 9 -4.98 9 -6 9 C-5.67 6.69 -5.34 4.38 -5 2 C-3.68 2 -2.36 2 -1 2 C-0.67 1.34 -0.34 0.68 0 0 Z " fill="#191416" transform="translate(589,452)"/>
<path d="M0 0 C0.99 0 1.98 0 3 0 C3 0.66 3 1.32 3 2 C3.99 2 4.98 2 6 2 C6 2.99 6 3.98 6 5 C6.99 5.33 7.98 5.66 9 6 C8.01 6.495 8.01 6.495 7 7 C5.0546875 6.22265625 5.0546875 6.22265625 2.875 5.0625 C2.15054688 4.68222656 1.42609375 4.30195313 0.6796875 3.91015625 C0.12539063 3.60980469 -0.42890625 3.30945313 -1 3 C-0.67 2.01 -0.34 1.02 0 0 Z " fill="#181617" transform="translate(668,129)"/>
<path d="M0 0 C0 4.52973579 -1.44144777 6.36983851 -4.4375 9.75 C-7 12 -7 12 -10 12 C-6.7 8.04 -3.4 4.08 0 0 Z " fill="#67D7F3" transform="translate(682,690)"/>
<path d="M0 0 C0.99 0 1.98 0 3 0 C3.66 2.97 4.32 5.94 5 9 C3.02 7.35 1.04 5.7 -1 4 C-0.67 2.68 -0.34 1.36 0 0 Z " fill="#58CDF1" transform="translate(458,869)"/>
<path d="M0 0 C0.66 0.33 1.32 0.66 2 1 C1.38511719 1.68835938 1.38511719 1.68835938 0.7578125 2.390625 C0.21898437 3.00421875 -0.31984375 3.6178125 -0.875 4.25 C-1.40867187 4.85328125 -1.94234375 5.4565625 -2.4921875 6.078125 C-3.9797487 7.97418746 -5.00322436 9.81290005 -6 12 C-6.99 11.67 -7.98 11.34 -9 11 C-6.03 7.37 -3.06 3.74 0 0 Z " fill="#101318" transform="translate(750,655)"/>
<path d="M0 0 C0.33 0.66 0.66 1.32 1 2 C1.66 2 2.32 2 3 2 C2.34 5.96 1.68 9.92 1 14 C0.67 14 0.34 14 0 14 C-0.77916092 8.97874074 -1.13016601 5.02296004 0 0 Z " fill="#5ED0EF" transform="translate(211,361)"/>
<path d="M0 0 C3.39192363 0.59283621 5.2107757 1.76743189 7.75 4.0625 C8.67039062 4.88427734 8.67039062 4.88427734 9.609375 5.72265625 C10.29773438 6.35494141 10.29773438 6.35494141 11 7 C10.67 7.66 10.34 8.32 10 9 C9.21625 8.525625 8.4325 8.05125 7.625 7.5625 C6.11051322 6.66101977 4.5764103 5.78820515 3 5 C2.67 4.01 2.34 3.02 2 2 C1.34 1.34 0.68 0.68 0 0 Z " fill="#2284D8" transform="translate(562,258)"/>
<path d="M0 0 C4.59306496 1.4859916 7.43569245 3.85014682 11 7 C8.33333333 7 5.66666667 7 3 7 C3 6.01 3 5.02 3 4 C1.56009377 1.82967524 1.56009377 1.82967524 0 0 Z " fill="#101317" transform="translate(689,182)"/>
<path d="M0 0 C0.66 0.33 1.32 0.66 2 1 C1.04882866 2.1725131 0.08882991 3.33787015 -0.875 4.5 C-1.40867187 5.1496875 -1.94234375 5.799375 -2.4921875 6.46875 C-2.98976563 6.9740625 -3.48734375 7.479375 -4 8 C-4.66 8 -5.32 8 -6 8 C-6.33 6.02 -6.66 4.04 -7 2 C-6.401875 2.226875 -5.80375 2.45375 -5.1875 2.6875 C-4.465625 2.790625 -3.74375 2.89375 -3 3 C-1.22809091 1.64555699 -1.22809091 1.64555699 0 0 Z " fill="#131618" transform="translate(535,856)"/>
<path d="M0 0 C0.99 0.33 1.98 0.66 3 1 C3.12375 2.0725 3.2475 3.145 3.375 4.25 C3.89643936 7.37863615 4.40088254 9.33480424 6 12 C1.77202073 9.09326425 1.77202073 9.09326425 0 7 C-0.375 3.1875 -0.375 3.1875 0 0 Z " fill="#151715" transform="translate(476,841)"/>
<path d="M0 0 C1 3 1 3 0 6 C-2.92079805 8.07530387 -4.37546731 9 -8 9 C-5.36 6.03 -2.72 3.06 0 0 Z " fill="#60D2F1" transform="translate(671,703)"/>
<path d="M0 0 C1.35304209 4.05912626 0.15216503 5.77149591 -1.4375 9.6875 C-2.14712891 11.45673828 -2.14712891 11.45673828 -2.87109375 13.26171875 C-3.24363281 14.16535156 -3.61617187 15.06898438 -4 16 C-5.13890378 12.20632754 -4.59374374 10.63019408 -3 7 C-2.63128912 5.34080104 -2.28718326 3.6752357 -2 2 C-1.34 2 -0.68 2 0 2 C0 1.34 0 0.68 0 0 Z " fill="#6DD4EC" transform="translate(229,308)"/>
<path d="M0 0 C0.6875 1.8125 0.6875 1.8125 1 4 C-0.125 5.5 -0.125 5.5 -2 7 C-2.886875 7.721875 -3.77375 8.44375 -4.6875 9.1875 C-5.8321875 10.0846875 -5.8321875 10.0846875 -7 11 C-5.5140084 6.40693504 -3.14985318 3.56430755 0 0 Z " fill="#63D5F3" transform="translate(243,225)"/>
<path d="M0 0 C3.25524265 3.02272532 5.61820737 6.25718301 8 10 C7.67 10.66 7.34 11.32 7 12 C6.67386719 11.50628906 6.34773437 11.01257813 6.01171875 10.50390625 C5.57472656 9.86324219 5.13773438 9.22257813 4.6875 8.5625 C4.25824219 7.92441406 3.82898438 7.28632812 3.38671875 6.62890625 C1.9965948 4.7114316 1.9965948 4.7114316 -1 4 C-0.67 2.68 -0.34 1.36 0 0 Z " fill="#101317" transform="translate(228,596)"/>
<path d="M0 0 C0.33 0.99 0.66 1.98 1 3 C-0.4375 5.6875 -0.4375 5.6875 -2 8 C-5 4.375 -5 4.375 -5 1 C-3.68 1.33 -2.36 1.66 -1 2 C-0.67 1.34 -0.34 0.68 0 0 Z " fill="#5FD0F6" transform="translate(238,288)"/>
<path d="M0 0 C4.875 4.75 4.875 4.75 6 7 C3.69 7 1.38 7 -1 7 C-0.67 4.69 -0.34 2.38 0 0 Z " fill="#5CD0F7" transform="translate(305,649)"/>
<path d="M0 0 C0.99 0 1.98 0 3 0 C3.84098656 4.01804691 4.05404945 7.01803543 3 11 C0.43383368 7.15075052 0.44902324 4.5650696 0 0 Z " fill="#63D7F8" transform="translate(186,495)"/>
<path d="M0 0 C-0.33 0.66 -0.66 1.32 -1 2 C-3.97 2 -6.94 2 -10 2 C-10 1.34 -10 0.68 -10 0 C-6.33694766 -0.74926071 -3.57644848 -1.2380014 0 0 Z " fill="#241B11" transform="translate(382,489)"/>
<path d="M0 0 C0.33 0.66 0.66 1.32 1 2 C1.66 2 2.32 2 3 2 C2.35455571 5.48539917 0.89865603 8.02819057 -1 11 C-2.31625194 8.36749612 -1.74813658 7.19820944 -1.0625 4.375 C-0.86785156 3.55773437 -0.67320312 2.74046875 -0.47265625 1.8984375 C-0.23869141 0.95871094 -0.23869141 0.95871094 0 0 Z " fill="#5FCCEE" transform="translate(249,263)"/>
<path d="M0 0 C1.65 0 3.3 0 5 0 C5 0.66 5 1.32 5 2 C5.66 2 6.32 2 7 2 C6.67 2.99 6.34 3.98 6 5 C3.9375 5.6875 3.9375 5.6875 2 6 C2 5.01 2 4.02 2 3 C1.34 2.67 0.68 2.34 0 2 C0 1.34 0 0.68 0 0 Z " fill="#1A2326" transform="translate(637,113)"/>
<path d="M0 0 C2.97 0.495 2.97 0.495 6 1 C6 1.99 6 2.98 6 4 C6.66 4 7.32 4 8 4 C7.67 4.99 7.34 5.98 7 7 C5.83040013 6.02433888 4.66438823 5.044375 3.5 4.0625 C2.8503125 3.51722656 2.200625 2.97195313 1.53125 2.41015625 C1.0259375 1.94480469 0.520625 1.47945313 0 1 C0 0.67 0 0.34 0 0 Z " fill="#1B83DB" transform="translate(672,496)"/>
<path d="M0 0 C2.15377564 2.62198774 3.40072174 4.64404172 4 8 C3.01 8.33 2.02 8.66 1 9 C-1.125 3.375 -1.125 3.375 0 0 Z " fill="#1A232A" transform="translate(782,290)"/>
<path d="M0 0 C4.43090471 1.20842856 6.98112756 2.51668565 10 6 C7.8125 6.375 7.8125 6.375 5 6 C3.00977164 4.16038352 1.61010101 2.20813852 0 0 Z " fill="#121415" transform="translate(666,167)"/>
<path d="M0 0 C0.66 0.33 1.32 0.66 2 1 C1.67 1.99 1.34 2.98 1 4 C0.01 4 -0.98 4 -2 4 C-2 4.66 -2 5.32 -2 6 C-3.32 5.34 -4.64 4.68 -6 4 C-4.02 2.68 -2.04 1.36 0 0 Z " fill="#171516" transform="translate(353,167)"/>
<path d="M0 0 C1.98 0.66 3.96 1.32 6 2 C6 3.65 6 5.3 6 7 C1.125 3.375 1.125 3.375 0 0 Z " fill="#58CCEC" transform="translate(489,907)"/>
<path d="M0 0 C-0.39803561 2.88575819 -0.79009069 3.82189513 -3.0625 5.75 C-3.701875 6.1625 -4.34125 6.575 -5 7 C-5.1875 4.625 -5.1875 4.625 -5 2 C-2 0 -2 0 0 0 Z " fill="#5BCFF6" transform="translate(613,815)"/>
<path d="M0 0 C0.66 0 1.32 0 2 0 C2.185625 1.2065625 2.185625 1.2065625 2.375 2.4375 C2.58125 3.283125 2.7875 4.12875 3 5 C3.66 5.33 4.32 5.66 5 6 C4.67 7.65 4.34 9.3 4 11 C1.54176828 7.31265242 0.98757384 4.30300029 0 0 Z " fill="#182026" transform="translate(439,531)"/>
<path d="M0 0 C1.34726118 4.04178355 0.32004573 6.03986281 -1 10 C-1.99 10 -2.98 10 -4 10 C-2.99806563 6.20696275 -2.18975773 3.28463659 0 0 Z " fill="#0B3E75" transform="translate(342,528)"/>
<path d="M0 0 C0.33 0.66 0.66 1.32 1 2 C1.99 2.33 2.98 2.66 4 3 C5.5625 4.4375 5.5625 4.4375 7 6 C7.66 6.66 8.32 7.32 9 8 C7.02 8 5.04 8 3 8 C2.87625 7.360625 2.7525 6.72125 2.625 6.0625 C2.315625 5.0415625 2.315625 5.0415625 2 4 C1.34 3.67 0.68 3.34 0 3 C0 2.01 0 1.02 0 0 Z " fill="#0F70CE" transform="translate(615,399)"/>
<path d="M0 0 C0 3.33333333 0 6.66666667 0 10 C-1.89213369 7.61426621 -3.02391783 5.92824652 -4 3 C-2.68 2.01 -1.36 1.02 0 0 Z " fill="#181D27" transform="translate(711,351)"/>
<path d="M0 0 C-0.99 0.66 -1.98 1.32 -3 2 C-1.35 2.33 0.3 2.66 2 3 C2 3.33 2 3.66 2 4 C-0.64 4 -3.28 4 -6 4 C-6.33 3.01 -6.66 2.02 -7 1 C-4.53721199 -0.231394 -2.7204945 -0.07159196 0 0 Z " fill="#1D2F36" transform="translate(475,91)"/>
<path d="M0 0 C0.33 0.99 0.66 1.98 1 3 C0.236875 3.28875 -0.52625 3.5775 -1.3125 3.875 C-4.15029308 4.96269013 -4.15029308 4.96269013 -7 7 C-3.86206897 0 -3.86206897 0 0 0 Z " fill="#151212" transform="translate(576,861)"/>
<path d="M0 0 C0 3.61537605 -0.89229241 5.11165997 -3 8 C-3.99 8 -4.98 8 -6 8 C-4.55746343 4.63408134 -2.66735273 2.48952921 0 0 Z " fill="#62D3F0" transform="translate(577,811)"/>
<path d="M0 0 C1.32 0.66 2.64 1.32 4 2 C1.02819057 3.89865603 -1.51460083 5.35455571 -5 6 C-3.35 4.02 -1.7 2.04 0 0 Z " fill="#5CD4FA" transform="translate(586,801)"/>
<path d="M0 0 C0 3 0 3 -2.5 5.6875 C-3.325 6.450625 -4.15 7.21375 -5 8 C-4.7525 7.1028125 -4.7525 7.1028125 -4.5 6.1875 C-3.8885876 3.88655664 -3.8885876 3.88655664 -4 1 C-2.68 0.67 -1.36 0.34 0 0 Z " fill="#0F1518" transform="translate(714,648)"/>
<path d="M0 0 C0 3 0 3 -2.5 5.6875 C-3.325 6.450625 -4.15 7.21375 -5 8 C-4.64950425 4.75791433 -4.43778819 3.38472296 -1.9375 1.1875 C-1.298125 0.795625 -0.65875 0.40375 0 0 Z " fill="#5FD3F4" transform="translate(758,642)"/>
<path d="M0 0 C0.66 0 1.32 0 2 0 C2 0.99 2 1.98 2 3 C2.66 3 3.32 3 4 3 C4 3.66 4 4.32 4 5 C4.66 5.33 5.32 5.66 6 6 C5.34 6 4.68 6 4 6 C3.67 7.32 3.34 8.64 3 10 C2.01 6.7 1.02 3.4 0 0 Z " fill="#2183DC" transform="translate(697,525)"/>
<path d="M0 0 C3.875 1.75 3.875 1.75 5 4 C4.01 4 3.02 4 2 4 C1.67 4.66 1.34 5.32 1 6 C-0.0625 4.125 -0.0625 4.125 -1 2 C-0.67 1.34 -0.34 0.68 0 0 Z " fill="#182028" transform="translate(681,505)"/>
<path d="M0 0 C0.33 0.66 0.66 1.32 1 2 C1.66 2 2.32 2 3 2 C3 3.65 3 5.3 3 7 C2.01 7.33 1.02 7.66 0 8 C0 5.36 0 2.72 0 0 Z " fill="#1D1610" transform="translate(212,374)"/>
<path d="M0 0 C2.72426311 2.35277269 3.8141763 4.62496331 5 8 C4.34 8 3.68 8 3 8 C3 7.34 3 6.68 3 6 C2.01 6 1.02 6 0 6 C0 4.02 0 2.04 0 0 Z " fill="#1B80D9" transform="translate(715,370)"/>
<path d="M0 0 C-1.98 2.31 -3.96 4.62 -6 7 C-7.33332095 4.3333581 -6.67102033 2.83319697 -6 0 C-2.25 -1.125 -2.25 -1.125 0 0 Z " fill="#62D5F4" transform="translate(277,233)"/>
<path d="M0 0 C0.66 0 1.32 0 2 0 C1.64950425 3.24208567 1.43778819 4.61527704 -1.0625 6.8125 C-1.701875 7.204375 -2.34125 7.59625 -3 8 C-1.125 2.25 -1.125 2.25 0 0 Z " fill="#54CDF2" transform="translate(284,219)"/>
<path d="M0 0 C1.4540625 0.0309375 1.4540625 0.0309375 2.9375 0.0625 C1.65687515 1.7699998 0.31982443 3.43623596 -1.0625 5.0625 C-1.7225 5.0625 -2.3825 5.0625 -3.0625 5.0625 C-3.625 3.125 -3.625 3.125 -4.0625 1.0625 C-3.0625 0.0625 -3.0625 0.0625 0 0 Z " fill="#16191B" transform="translate(294.0625,167.9375)"/>
<path d="M0 0 C0.95904856 3.83619425 0.91892116 5.32431536 0 9 C0.66 9.33 1.32 9.66 2 10 C0.68 10.33 -0.64 10.66 -2 11 C-1.34 7.37 -0.68 3.74 0 0 Z " fill="#17222E" transform="translate(443,565)"/>
<path d="M0 0 C0.66 0 1.32 0 2 0 C1.45276317 3.37462715 0.9451 5.08235 -1 8 C-1.66 7.34 -2.32 6.68 -3 6 C-3 5.01 -3 4.02 -3 3 C-2.01 3 -1.02 3 0 3 C0 2.01 0 1.02 0 0 Z " fill="#1A85E4" transform="translate(326,525)"/>
<path d="M0 0 C2 1.75 2 1.75 4 4 C4 5.32 4 6.64 4 8 C3.34 8 2.68 8 2 8 C0.23537317 4.91190305 0 3.76687864 0 0 Z " fill="#1E1714" transform="translate(689,514)"/>
<path d="M0 0 C0.66 0 1.32 0 2 0 C1.67 2.97 1.34 5.94 1 9 C-1.14809171 5.77786243 -1.29386153 4.72224599 -1 1 C-0.67 0.67 -0.34 0.34 0 0 Z " fill="#18130F" transform="translate(215,476)"/>
<path d="M0 0 C1.32 0.66 2.64 1.32 4 2 C4 2.66 4 3.32 4 4 C3.2575 3.773125 2.515 3.54625 1.75 3.3125 C-1.05914993 2.70523302 -1.05914993 2.70523302 -3.3125 4.4375 C-3.869375 4.953125 -4.42625 5.46875 -5 6 C-3.63016497 2.83884224 -3.0109362 2.0072908 0 0 Z " fill="#1F87E0" transform="translate(298,259)"/>
<path d="M0 0 C1.8125 0.1875 1.8125 0.1875 4 1 C5.8125 3.4375 5.8125 3.4375 7 6 C6.67 6.66 6.34 7.32 6 8 C4.9970458 6.85675161 3.99770973 5.71032809 3 4.5625 C2.443125 3.92441406 1.88625 3.28632812 1.3125 2.62890625 C0 1 0 1 0 0 Z " fill="#63D3ED" transform="translate(398,805)"/>
<path d="M0 0 C1.0625 1.875 1.0625 1.875 2 4 C1.67 4.66 1.34 5.32 1 6 C-0.32 5.34 -1.64 4.68 -3 4 C-2.01 2.68 -1.02 1.36 0 0 Z " fill="#5ED0F8" transform="translate(750,603)"/>
<path d="M0 0 C0.93423645 3.01031744 1.04449911 3.86650268 0 7 C-0.66 7 -1.32 7 -2 7 C-2.99 7.495 -2.99 7.495 -4 8 C-2.87548273 5.0280615 -1.77706209 2.66559313 0 0 Z " fill="#2A1E18" transform="translate(799,588)"/>
<path d="M0 0 C2.64 1.98 5.28 3.96 8 6 C7.01 6.495 7.01 6.495 6 7 C3.96855359 6.06553465 1.96466413 5.06775224 0 4 C0 2.68 0 1.36 0 0 Z " fill="#13161D" transform="translate(291,540)"/>
<path d="M0 0 C0.33 1.32 0.66 2.64 1 4 C1.66 4 2.32 4 3 4 C3 5.65 3 7.3 3 9 C0.11749016 6.61879622 -0.61038985 4.70129644 -1 1 C-0.67 0.67 -0.34 0.34 0 0 Z " fill="#151214" transform="translate(229,525)"/>
</svg>
